<?xml version="1.0" encoding="UTF-8"?>
<svg version="1.1" xmlns="http://www.w3.org/2000/svg" width="268" height="134">
<path d="M0 0 C88.44 0 176.88 0 268 0 C268 44.22 268 88.44 268 134 C179.56 134 91.12 134 0 134 C0 89.78 0 45.56 0 0 Z " fill="#FEFEFE" transform="translate(0,0)"/>
<path d="M0 0 C2.65369087 1.77418189 5.25301732 3.59814963 7.828125 5.484375 C26.74734049 19.27709339 48.98639813 23.72497793 72.02978516 20.29199219 C86.68098134 17.38794178 99.4609407 10.64970559 111.1394043 1.50732422 C121.33341514 -6.3954694 132.66430964 -8.40514912 145.375 -7.3125 C157.25316582 -4.87856909 168.50378652 1.55246011 175.375 11.6875 C182.88864265 24.7320185 185.54744789 37.15273123 182.1875 52.0625 C178.50802536 64.74566605 170.50959265 74.85828882 159.02734375 81.43359375 C147.33390261 86.96171541 133.9998371 88.11850832 121.5625 83.875 C115.81756277 81.29639007 111.00369202 77.65428358 106.02783203 73.85400391 C87.07060469 59.46947189 65.43341548 56.27771496 42.19873047 59.0690918 C26.62180247 61.46750595 14.56167694 68.54421106 1.8515625 77.45703125 C-10.43566647 85.97186536 -22.00456369 87.34756233 -36.6875 85.25 C-46.548268 82.72159795 -57.42487336 75.77021935 -62.67724609 66.91308594 C-69.61022428 54.39428157 -73.47500408 41.85389873 -69.4375 27.4375 C-68.87265365 25.83971703 -68.26777388 24.25555725 -67.625 22.6875 C-67.2846875 21.85605469 -66.944375 21.02460937 -66.59375 20.16796875 C-60.78293876 7.38811025 -50.83057073 -0.79238585 -37.8125 -5.75 C-24.32644817 -9.78011381 -11.7797247 -7.33548074 0 0 Z " fill="#ED6A5B" transform="translate(71.625,30.3125)"/>
</svg>
